<svg version="1.1" xmlns="http://www.w3.org/2000/svg" style="display: block;" viewBox="0 0 2048 2048" xmlns:c2pa="http://c2pa.org/manifest">
<path transform="translate(0,0)" fill="#010000" d="M 0 0 L 2048 0 L 2048 2048 L 0 2048 L 0 0 z"/>
<path transform="translate(0,0)" fill="#ffffff" d="M 1390.8 823.199 C 1509.73 817.409 1610.83 909.163 1616.56 1028.1 C 1622.29 1147.04 1530.49 1248.09 1411.54 1253.76 C 1292.69 1259.43 1191.72 1167.71 1185.99 1048.85 C 1180.27 929.995 1271.94 828.986 1390.8 823.199 z"/>
<path transform="translate(0,0)" fill="#010000" d="M 1394.59 858.44 C 1493.86 854.765 1577.36 932.177 1581.19 1031.44 C 1585.02 1130.71 1507.74 1214.33 1408.48 1218.32 C 1309 1222.31 1225.15 1144.82 1221.31 1045.34 C 1217.47 945.847 1295.09 862.123 1394.59 858.44 z"/>
<path transform="translate(0,0)" fill="#e63e62" d="M 1388.15 866.112 C 1483.55 858.823 1566.73 930.408 1573.74 1025.83 C 1580.75 1121.26 1508.93 1204.23 1413.48 1210.96 C 1318.43 1217.66 1235.88 1146.19 1228.9 1051.16 C 1221.91 956.134 1293.14 873.371 1388.15 866.112 z"/>
<path transform="translate(0,0)" fill="#010000" d="M 1396.56 922.238 C 1400.72 922.004 1404.93 922.427 1408.83 923.945 C 1414.38 926.109 1420.1 930.41 1422.11 936.249 C 1425.58 946.311 1425.01 1111.49 1423.76 1131.11 C 1423.47 1135.74 1422.97 1139.64 1420.62 1143.72 C 1416.79 1150.35 1411.14 1153.32 1403.94 1155.14 C 1398.29 1155.18 1393.31 1155.06 1388.13 1152.51 C 1382.84 1149.9 1378.42 1145.1 1376.65 1139.41 C 1374.37 1132.05 1374.28 964.609 1375.39 946.097 C 1375.65 941.758 1376.43 938.124 1378.56 934.316 C 1382.58 927.101 1388.93 924.292 1396.56 922.238 z"/>
<path transform="translate(0,0)" fill="#ffffff" d="M 1399.26 929.235 C 1409.62 930.587 1411.38 932.729 1416.97 941.401 C 1418.33 1004.88 1417.09 1072.81 1417.06 1136.75 C 1411.91 1144.33 1409.42 1146.05 1400.85 1148.44 C 1389.56 1146.12 1387.93 1145.08 1382.08 1134.87 C 1381.54 1098.39 1382.62 1061.24 1382.18 1024.63 C 1382.33 999.623 1381.56 974.541 1382.31 949.548 C 1382.68 937.379 1387.77 931.988 1399.26 929.235 z"/>
<path transform="translate(0,0)" fill="#ffffff" d="M 924.711 520.413 C 929.152 519.671 942.929 519.681 947.573 519.827 C 986.869 521.24 1025.13 532.796 1058.64 553.372 C 1109.26 584.25 1140.09 632.155 1153.65 689.037 C 1127.77 770.336 1042.51 815.484 961.73 821.827 C 912.848 823.134 877.827 819.988 832.159 798.064 C 787.913 776.821 747.411 737.512 731.141 690.536 C 736.569 658.043 753.456 623.794 774.553 598.61 C 812.035 553.39 866.171 525.198 924.711 520.413 z"/>
<path transform="translate(0,0)" fill="#ffffff" d="M 1156.24 705.667 C 1158.02 712.077 1157.68 725.37 1157.55 732.311 C 1155.81 832.402 1089.8 914.556 993.539 940.825 C 992.056 967.299 982 979.658 958.078 989.393 L 958.535 1238.37 C 990.607 1253.76 990.185 1295.27 960.788 1312.02 C 950.676 1317.76 938.62 1318.99 927.554 1315.42 C 893.376 1304.62 888.438 1256.44 924.065 1238.03 L 924.062 1051.5 C 924.092 1030.93 924.019 1010.36 923.842 989.786 C 900.278 978.671 891.058 966.694 890.887 940.276 C 846.228 928.903 806.425 903.436 777.385 867.652 C 737.77 819.746 723.325 767.453 729.267 705.885 C 746.897 744.823 778.292 775.535 815.161 796.875 C 914.503 854.376 1059.98 836.169 1132.43 743.726 C 1141.99 731.532 1148.57 718.829 1156.24 705.667 z"/>
<path transform="translate(0,0)" fill="#ffffff" d="M 461.125 1301.58 C 498.67 1377.82 635.325 1418.59 713.549 1434.22 C 874.297 1466.34 1050.06 1464.55 1209.32 1424.64 C 1275.61 1408.03 1376.13 1368.15 1411.92 1307.79 L 1414.35 1304.53 C 1415.88 1306.63 1415.24 1305.52 1415.62 1308.43 C 1414.97 1312.63 1414.78 1333.36 1414.78 1338.42 C 1414.81 1363.11 1399.78 1388.78 1381.85 1405.43 C 1280.3 1499.8 1065.19 1523.88 933.975 1523.68 C 824.057 1523.51 684.892 1504.34 585.26 1460.5 C 552.752 1446.2 517.156 1427.71 493.207 1401.79 C 458.138 1363.85 460.397 1347.69 461.125 1301.58 z"/>
<path transform="translate(0,0)" fill="#00bfb2" d="M 890.666 1106.44 C 899.31 1105.95 908.561 1106.2 917.264 1106.27 C 917.211 1129.26 917.353 1152.26 917.689 1175.26 C 898.64 1175.75 879.597 1176.45 860.563 1177.36 C 766.543 1181.9 626.076 1203.85 543.534 1249.68 C 519.797 1262.58 498.403 1279.38 480.25 1299.39 L 472.268 1309.3 C 466.232 1299.19 462.671 1288.68 461.894 1277.05 C 460.749 1259.91 475.407 1236.03 487.156 1224.35 C 578.693 1133.33 769.278 1110.7 890.666 1106.44 z"/>
<path transform="translate(0,0)" fill="#ffffff" d="M 690.149 1280.79 C 690.875 1281.54 691.608 1282.28 692.345 1283.02 C 740.993 1331.63 875.748 1345.42 941.499 1345.09 C 1011.52 1344.74 1143.13 1331.64 1194.49 1279.99 C 1194.94 1299.41 1196.04 1309.67 1186.37 1326.82 C 1183.24 1331.38 1179.69 1335.64 1175.78 1339.54 C 1123.94 1390.29 994.372 1403.45 924.133 1400.98 C 859.298 1398.7 756.239 1387.55 707.315 1338.82 C 688.243 1319.82 689.531 1304.7 690.149 1280.79 z"/>
<path transform="translate(0,0)" fill="#00bfb2" d="M 965.087 1105.95 C 1017.63 1105.74 1080.09 1113.68 1132.22 1121.43 C 1153.99 1124.67 1179.52 1131.22 1201.41 1135.88 C 1217.97 1166.36 1235.23 1192.71 1263.3 1214.03 C 1272.48 1221 1283.48 1226.68 1292.15 1234.01 C 1287.88 1233.14 1282.78 1230.98 1278.61 1229.48 C 1258.04 1222.1 1237.43 1214.66 1216.25 1209.14 C 1134.16 1187.99 1049.87 1176.55 965.109 1175.05 L 965.087 1105.95 z"/>
<path transform="translate(0,0)" fill="#00bfb2" d="M 965.165 1180.84 C 1018.47 1179.99 1181.69 1198.84 1194.44 1263.13 C 1192.03 1271.76 1189.74 1275.71 1183.32 1281.83 C 1176.83 1286.96 1171.39 1290.41 1164.36 1294.7 C 1120.05 1262.94 1037.22 1253.48 983.396 1251.71 C 977.531 1242.51 974.124 1239.62 965.209 1234.21 L 965.165 1180.84 z"/>
<path transform="translate(0,0)" fill="#00bfb2" d="M 911.931 1180.43 C 916.003 1180.36 914.403 1179.72 917.341 1181.42 C 918.557 1189.47 917.749 1222.57 917.683 1232.92 C 909.325 1239.21 905.227 1242.97 898.782 1251.06 C 837.052 1257.01 771.358 1260.04 716.828 1294.35 C 712.452 1291.89 708.903 1289.17 704.853 1286.23 C 661.171 1249.67 727.681 1218.67 756.501 1207.68 C 806.42 1188.65 858.984 1183.05 911.931 1180.43 z"/>
<path transform="translate(0,0)" fill="#00bfb2" d="M 1320.04 1247.01 C 1325.79 1247.77 1336.63 1251.96 1343.02 1253.82 C 1367.12 1260.82 1388.46 1260.07 1412.83 1261.41 C 1416.68 1279.17 1415.45 1285.5 1406.94 1302.22 C 1405.49 1304.96 1404.08 1307.54 1402.58 1310.26 C 1371.76 1271.97 1358.4 1270.68 1320.04 1247.01 z"/>
<path transform="translate(0,0)" fill="#010000" d="M 1339.81 1269.14 C 1339.93 1269.15 1340.06 1269.17 1340.19 1269.18 C 1340.39 1269.52 1340.28 1269.27 1340.43 1270.07 C 1340.28 1270.01 1340.13 1269.95 1339.98 1269.89 C 1339.77 1269.5 1339.87 1269.75 1339.81 1269.14 z"/>
</svg>